<svg id="圖層_1" data-name="圖層 1" xmlns="http://www.w3.org/2000/svg" viewBox="0 0 18 18"><defs><style>.cls-1{fill:#c3c3c3;fill-rule:evenodd;}</style></defs><title>icon_mess01</title><path class="cls-1" d="M13.5,9a1.13,1.13,0,1,0-1.12-1.13A1.13,1.13,0,0,0,13.5,9ZM9,9A1.13,1.13,0,1,0,7.88,7.87,1.13,1.13,0,0,0,9,9ZM4.5,9A1.13,1.13,0,1,0,3.38,7.87,1.13,1.13,0,0,0,4.5,9ZM9,1.12c4.35,0,7.88,3,7.88,6.75a6.53,6.53,0,0,1-3.37,5.53l0,2.61L10.9,14.42a9.07,9.07,0,0,1-1.9.2c-4.35,0-7.87-3-7.87-6.75S4.65,1.12,9,1.12ZM9,15.75a10.2,10.2,0,0,0,1.68-.14l4,2.39V14A7.57,7.57,0,0,0,18,7.87C18,3.53,14,0,9,0S0,3.53,0,7.87,4,15.75,9,15.75Z"/></svg>